<svg xmlns="http://www.w3.org/2000/svg" width="900" height="1260" viewBox="0 0 900 1260">
  <defs>
    <radialGradient id="card" cx=".5" cy=".48" r=".72">
      <stop offset="0" stop-color="#8e8e8e"/>
      <stop offset=".66" stop-color="#3c3c3c"/>
      <stop offset="1" stop-color="#151515"/>
    </radialGradient>
    <radialGradient id="art" cx=".5" cy=".46" r=".58">
      <stop offset="0" stop-color="#f0f0f0"/>
      <stop offset=".48" stop-color="#a6a6a6"/>
      <stop offset="1" stop-color="#333"/>
    </radialGradient>
  </defs>
  <rect width="900" height="1260" rx="44" fill="#151515"/>
  <rect x="42" y="42" width="816" height="1176" rx="32" fill="url(#card)"/>
  <rect x="83.7" y="177.7" width="732.6" height="429.7" rx="24" fill="url(#art)"/>
  <ellipse cx="442" cy="480" rx="148" ry="210" fill="#ececec"/>
  <path d="M319 636 C404 576 508 578 596 642 C530 686 386 684 319 636 Z" fill="#bdbdbd"/>
  <path d="M254 502 C309 388 385 309 492 263 C460 390 413 502 338 620 Z" fill="#d9d9d9"/>
  <path d="M557 302 C642 392 675 506 638 648 C596 536 550 442 486 360 Z" fill="#a5a5a5"/>
</svg>
