<svg xmlns="http://www.w3.org/2000/svg" width="900" height="1260" viewBox="0 0 900 1260">
  <defs>
    <radialGradient id="space" cx=".45" cy=".34" r=".78">
      <stop offset="0" stop-color="#ffd9fb"/>
      <stop offset=".28" stop-color="#ff4f8b"/>
      <stop offset=".61" stop-color="#503ad4"/>
      <stop offset="1" stop-color="#080912"/>
    </radialGradient>
    <linearGradient id="glass" x1="0" x2="1" y1="0" y2="1">
      <stop offset="0" stop-color="#ffffff" stop-opacity=".75"/>
      <stop offset=".38" stop-color="#35f6dd" stop-opacity=".25"/>
      <stop offset=".68" stop-color="#ff4f8b" stop-opacity=".35"/>
      <stop offset="1" stop-color="#ffffff" stop-opacity=".45"/>
    </linearGradient>
    <filter id="soft"><feGaussianBlur stdDeviation="13"/></filter>
  </defs>
  <rect width="900" height="1260" rx="44" fill="url(#space)"/>
  <rect x="34" y="34" width="832" height="1192" rx="34" fill="none" stroke="url(#glass)" stroke-width="22"/>
  <g filter="url(#soft)" opacity=".56">
    <circle cx="226" cy="260" r="150" fill="#35f6dd"/>
    <circle cx="650" cy="416" r="205" fill="#ff4f8b"/>
    <circle cx="478" cy="950" r="180" fill="#f6c945"/>
  </g>
  <path d="M138 202 L780 102 L676 408 L828 558 L540 625 L454 1042 L336 682 L106 576 L302 410 Z" fill="url(#glass)" opacity=".38"/>
  <path d="M439 246 C568 255 626 346 612 470 C600 586 508 684 402 680 C300 676 225 591 231 483 C237 371 319 266 439 246 Z" fill="#ffe1fb"/>
  <path d="M399 312 C373 258 341 207 298 160 C379 178 437 218 478 282 Z" fill="#ffd0fb"/>
  <path d="M487 318 C538 265 591 229 649 211 C618 274 586 325 553 364 Z" fill="#ffd0fb"/>
  <path d="M573 585 C682 649 738 773 710 926 C661 805 589 737 477 719 Z" fill="#ffd0fb"/>
  <path d="M331 638 C242 720 195 829 198 966 C260 846 334 767 433 720 Z" fill="#ffd0fb"/>
  <circle cx="384" cy="426" r="18" fill="#36234d"/>
  <circle cx="489" cy="424" r="18" fill="#36234d"/>
  <path d="M420 494 C449 522 487 517 513 488" fill="none" stroke="#36234d" stroke-width="14" stroke-linecap="round"/>
  <rect x="72" y="90" width="756" height="76" rx="22" fill="#fff" opacity=".28"/>
  <text x="102" y="140" fill="#ffffff" font-family="Verdana, Arial, sans-serif" font-size="45" font-weight="700">Mew Prism</text>
  <text x="702" y="140" fill="#ffffff" font-family="Verdana, Arial, sans-serif" font-size="34" font-weight="700">110 HP</text>
  <rect x="90" y="948" width="720" height="208" rx="26" fill="#fff" opacity=".22"/>
  <text x="128" y="1010" fill="#ffffff" font-family="Verdana, Arial, sans-serif" font-size="30" font-weight="700">Fracture Memory</text>
  <text x="128" y="1058" fill="#ffffff" font-family="Verdana, Arial, sans-serif" font-size="25">Full-card foil and depth create a glass</text>
  <text x="128" y="1096" fill="#ffffff" font-family="Verdana, Arial, sans-serif" font-size="25">panel effect around the expanded art.</text>
</svg>
